<svg xmlns="http://www.w3.org/2000/svg" viewBox="0 0 512 390"><defs><style>.cls-1{fill:#37b6d3;}</style></defs><title>fhfhvhfdfgdgdfhfdfhdhfAsset 1</title><g id="Layer_2" data-name="Layer 2"><g id="Capa_1" data-name="Capa 1"><path class="cls-1" d="M467,0H45A45.08,45.08,0,0,0,0,45V345a45.07,45.07,0,0,0,45,45H467a45.07,45.07,0,0,0,45-45V45A45.07,45.07,0,0,0,467,0Zm-6.21,30L257,233.83,51.36,30ZM30,338.79V51.07L174.48,194.31ZM51.21,360,195.78,215.43l50.66,50.22a15,15,0,0,0,21.17,0L317,216.21,460.79,360ZM482,338.79,338.21,195,482,51.21Z"/></g></g></svg>