<svg id="_3d-printing-filament" data-name="3d-printing-filament" xmlns="http://www.w3.org/2000/svg" width="16.428" height="16.428" viewBox="0 0 16.428 16.428">
  <g id="Group_124" data-name="Group 124" transform="translate(0.963 8.727)">
    <g id="Group_123" data-name="Group 123">
      <path id="Path_19" data-name="Path 19" d="M44.5,277.775H42.1a1.927,1.927,0,0,1-1.925-1.925,3.855,3.855,0,0,0-3.85-3.85H30.963a.963.963,0,0,0,0,1.925h5.358a1.927,1.927,0,0,1,1.925,1.925,3.855,3.855,0,0,0,3.85,3.85H44.5a.963.963,0,0,0,0-1.925Z" transform="translate(-30 -272)" fill="#37b6d3"/>
    </g>
  </g>
  <g id="Group_126" data-name="Group 126" transform="translate(0 2.952)">
    <g id="Group_125" data-name="Group 125">
      <path id="Path_20" data-name="Path 20" d="M13.54,92H.963A.963.963,0,0,0,0,92.963v.481a.481.481,0,0,0,.481.481h13.54a.481.481,0,0,0,.481-.481v-.481A.963.963,0,0,0,13.54,92Z" transform="translate(0 -92)" fill="#37b6d3"/>
    </g>
  </g>
  <g id="Group_128" data-name="Group 128" transform="translate(0.963 5.839)">
    <g id="Group_127" data-name="Group 127">
      <path id="Path_21" data-name="Path 21" d="M41.615,182H30.963a.963.963,0,1,0,0,1.925H41.615a.963.963,0,1,0,0-1.925Z" transform="translate(-30 -182)" fill="#37b6d3"/>
    </g>
  </g>
  <g id="Group_130" data-name="Group 130" transform="translate(4.877)">
    <g id="Group_129" data-name="Group 129">
      <path id="Path_22" data-name="Path 22" d="M154.888,0h-.963A1.981,1.981,0,0,0,152,1.989h4.813A1.981,1.981,0,0,0,154.888,0Z" transform="translate(-152)" fill="#37b6d3"/>
    </g>
  </g>
  <g id="Group_132" data-name="Group 132" transform="translate(11.999 11.615)">
    <g id="Group_131" data-name="Group 131">
      <path id="Path_23" data-name="Path 23" d="M375.99,362h-2.022a4.813,4.813,0,0,1,.1.963.964.964,0,0,0,.963.963h.481a.963.963,0,0,0,.963-.963v-.481A.481.481,0,0,0,375.99,362Z" transform="translate(-373.968 -362)" fill="#37b6d3"/>
    </g>
  </g>
  <g id="Group_134" data-name="Group 134" transform="translate(0 11.615)">
    <g id="Group_133" data-name="Group 133">
      <path id="Path_24" data-name="Path 24" d="M8.246,362.963A.964.964,0,0,0,7.283,362H.481a.481.481,0,0,0-.481.481v.481a.963.963,0,0,0,.963.963H8.343A4.811,4.811,0,0,1,8.246,362.963Z" transform="translate(0 -362)" fill="#37b6d3"/>
    </g>
  </g>
  <g id="Group_136" data-name="Group 136" transform="translate(4.877 14.502)">
    <g id="Group_135" data-name="Group 135">
      <path id="Path_25" data-name="Path 25" d="M155.777,452H152a1.925,1.925,0,0,0,1.925,1.925h.963a1.921,1.921,0,0,0,1.579-.828A4.792,4.792,0,0,1,155.777,452Z" transform="translate(-152 -452)" fill="#37b6d3"/>
    </g>
  </g>
  <g id="Group_138" data-name="Group 138" transform="translate(10.141 8.727)">
    <g id="Group_137" data-name="Group 137">
      <path id="Path_26" data-name="Path 26" d="M318.508,272h-2.436a4.827,4.827,0,0,1,1.547,1.925h.889a.963.963,0,1,0,0-1.925Z" transform="translate(-316.072 -272)" fill="#37b6d3"/>
    </g>
  </g>
</svg>
